<svg width="27" height="24" viewBox="0 0 27 24" fill="none" xmlns="http://www.w3.org/2000/svg">
<path fill-rule="evenodd" clip-rule="evenodd" d="M6.48332 1.2603C1.6567 2.71953 -0.515756 7.7127 1.10973 12.4543C1.92181 14.6529 3.23488 16.6172 4.95714 18.2261C5.43699 18.6638 6.01214 19.1429 6.68377 19.6649L7.38762 20.2011C7.5103 20.2929 7.63567 20.3858 7.76374 20.48L8.56457 21.0595L9.43038 21.6683L10.3614 22.3065L11.358 22.9745C12.6562 23.8357 14.3438 23.8358 15.6421 22.9747L16.1424 22.6412C16.4752 22.4183 16.797 22.2003 17.1078 21.9873L18.0074 21.3633C18.1518 21.2618 18.2935 21.1615 18.4325 21.0625L19.2337 20.483C19.3618 20.3889 19.4872 20.296 19.6098 20.2043L20.313 19.6689L20.9512 19.1627C21.355 18.8348 21.7155 18.5262 22.033 18.2367C23.7667 16.6171 25.0798 14.6528 25.8816 12.4832C27.5164 7.71512 25.3352 2.71994 20.5075 1.26039L20.1617 1.16367C17.9637 0.595945 15.6286 0.877995 13.6571 1.9325L13.4949 2.022L13.3343 1.93227C11.2589 0.820744 8.77965 0.566665 6.48332 1.2603ZM12.7516 4.60227C13.1974 4.91613 13.7922 4.91635 14.2381 4.60282C15.8191 3.49136 17.8773 3.16603 19.7611 3.73355C23.1126 4.74681 24.6199 8.19845 23.4482 11.6166C22.797 13.3775 21.7106 15.0027 20.2809 16.3384C19.8514 16.7301 19.3205 17.1708 18.6895 17.6593L18.0253 18.1637C17.909 18.2504 17.79 18.3384 17.6682 18.4278L16.9044 18.9793L16.0746 19.5619L15.1792 20.1753L14.2117 20.8236C13.7814 21.1089 13.2189 21.1089 12.7862 20.8218L12.2974 20.4959L11.3689 19.867L10.5058 19.2685L9.70825 18.7007C9.45335 18.5166 9.20939 18.3376 8.97642 18.1637L8.31045 17.6578C7.88846 17.3309 7.51049 17.0248 7.17672 16.7397L6.70927 16.3279C5.29098 15.0027 4.20463 13.3776 3.54318 11.5877C2.3804 8.19473 3.88095 4.74589 7.23061 3.73318C9.11347 3.16445 11.1717 3.4898 12.7516 4.60227Z" fill="#C4C4C5"/>
</svg>
